<?xml version="1.0" encoding="utf-8"?>
<!-- Generator: Adobe Illustrator 15.0.0, SVG Export Plug-In . SVG Version: 6.00 Build 0)  -->
<!DOCTYPE svg PUBLIC "-//W3C//DTD SVG 1.1//EN" "http://www.w3.org/Graphics/SVG/1.1/DTD/svg11.dtd">
<svg version="1.1"  xmlns="http://www.w3.org/2000/svg" xmlns:xlink="http://www.w3.org/1999/xlink" x="0px" y="0px"
	 width="48px" height="48px" viewBox="0 0 48 48" enable-background="new 0 0 48 48" xml:space="preserve">
<g>
	<path fill="#8BC34A" d="M19,38c0,0-1.938-4-7-4s-7,4-7,4v2h14V38z"/>
	<path fill="#8BC34A" d="M43,38c0,0-1.938-4-7-4s-7,4-7,4v2h14V38z"/>
</g>
<g>
	<path fill="#FFA726" d="M16,12c0,2.209-1.791,4-4,4s-4-1.791-4-4s1.791-4,4-4S16,9.791,16,12"/>
	<path fill="#FFA726" d="M40,12c0,2.209-1.791,4-4,4s-4-1.791-4-4s1.791-4,4-4S40,9.791,40,12"/>
</g>
<g>
	<path fill="#33691E" d="M19,21c0,0-1.938-4-7-4s-7,4-7,4v2h14V21z"/>
	<path fill="#33691E" d="M43,21c0,0-1.938-4-7-4s-7,4-7,4v2h14V21z"/>
</g>
<g>
	<path fill="#FFB74D" d="M16,29c0,2.209-1.791,4-4,4s-4-1.791-4-4s1.791-4,4-4S16,26.791,16,29"/>
	<path fill="#FFB74D" d="M40,29c0,2.209-1.791,4-4,4s-4-1.791-4-4s1.791-4,4-4S40,26.791,40,29"/>
	<path fill="#FFB74D" d="M28,21c0,2.209-1.791,4-4,4s-4-1.791-4-4s1.791-4,4-4S28,18.791,28,21"/>
</g>
<path fill="#689F38" d="M31,30c0,0-1.938-4-7-4c-5.062,0-7,4-7,4v2h14V30z"/>
</svg>
