<?xml version="1.0" encoding="iso-8859-1"?>
<!-- Generator: Adobe Illustrator 19.1.1, SVG Export Plug-In . SVG Version: 6.00 Build 0)  -->
<svg version="1.1"  xmlns="http://www.w3.org/2000/svg" xmlns:xlink="http://www.w3.org/1999/xlink" x="0px" y="0px"
	 viewBox="0 0 48 48" style="enable-background:new 0 0 48 48;" xml:space="preserve">
<path style="fill:#5EC08F;" d="M31.029,29l5.091-11h-5.429c-0.001,0-0.002,0-0.003,0c-1.344-0.023-2.64,0.735-3.24,2.035L23.311,29
	H31.029z"/>
<path style="fill:#5EC08F;" d="M17.667,31l4.072-7h-6.824c-0.137,0.152-0.275,0.304-0.382,0.487L10.734,31H17.667z"/>
<path style="fill:#FF754C;" d="M37.125,22c-5.941,0-10.447,8-27,8c-2.485,0-4,1.515-4,4s2.015,4,4.5,4c19.762,0,31.5-4.31,31.5-11
	C42.125,24.239,39.887,22,37.125,22z"/>
<path style="fill:#FFBA57;" d="M32.625,10c-1.933,0-3.5,1.567-3.5,3.5c0,1.932,1.567,3.5,3.5,3.5s3.5-1.568,3.5-3.5
	C36.125,11.567,34.558,10,32.625,10"/>
<path style="fill:#FFBA57;" d="M19.125,16c-1.657,0-3,1.343-3,3c0,1.656,1.343,3,3,3s3-1.344,3-3C22.125,17.343,20.782,16,19.125,16
	"/>
<line style="fill:none;stroke:#455A64;stroke-width:2;" x1="15.344" y1="24" x2="7.125" y2="40"/>
<path style="fill:#FFBA57;" d="M21.625,26h-6c-0.825,0-1.5-0.675-1.5-1.5v0c0-0.825,0.675-1.5,1.5-1.5h6c0.825,0,1.5,0.675,1.5,1.5
	v0C23.125,25.325,22.45,26,21.625,26z"/>
<line style="fill:none;stroke:#455A64;stroke-width:2;" x1="28.344" y1="19" x2="18.125" y2="40"/>
<path style="fill:#FFBA57;" d="M36.625,21h-8c-0.825,0-1.5-0.675-1.5-1.5v0c0-0.825,0.675-1.5,1.5-1.5h8c0.825,0,1.5,0.675,1.5,1.5
	v0C38.125,20.325,37.45,21,36.625,21z"/>
<path style="fill:#7E8CCF;" d="M44.125,36c0-4.142-3.876-4.975-7-5.001c-2.109-0.018-3.875,0.313-3.875,0.313S16.687,36,12.125,36
	c-3,0-4-2-4-2s-1,2-4,2v8h40V36z"/>
<path style="fill:#C5CAE9;" d="M44.125,41.999c0-3.813-4.438-6-8-6c-3.563,0-21,2.001-24,2.001s-4-2-4-2s-1,2-4,2v6h40V41.999z"/>
</svg>
