<?xml version="1.0" encoding="UTF-8" standalone="no"?>
<!-- Created with Inkscape (http://www.inkscape.org/) -->

<svg
   xmlns:dc="http://purl.org/dc/elements/1.1/"
   xmlns:cc="http://creativecommons.org/ns#"
   xmlns:rdf="http://www.w3.org/1999/02/22-rdf-syntax-ns#"
   xmlns:svg="http://www.w3.org/2000/svg"
   xmlns="http://www.w3.org/2000/svg"
   xmlns:sodipodi="http://sodipodi.sourceforge.net/DTD/sodipodi-0.dtd"
   xmlns:inkscape="http://www.inkscape.org/namespaces/inkscape"
   width="10.98141mm"
   height="9.9528322mm"
   viewBox="0 0 10.98141 9.9528322"
   version="1.1"
   id="svg8"
   inkscape:version="0.92.5 (2060ec1f9f, 2020-04-08)"
   sodipodi:docname="resetTeamSignups.svg">
  <defs
     id="defs2" />
  <sodipodi:namedview
     id="base"
     pagecolor="#ffffff"
     bordercolor="#666666"
     borderopacity="1.0"
     inkscape:pageopacity="0.0"
     inkscape:pageshadow="2"
     inkscape:zoom="11.2"
     inkscape:cx="14.807387"
     inkscape:cy="10.5973"
     inkscape:document-units="mm"
     inkscape:current-layer="layer1"
     showgrid="false"
     inkscape:window-width="2388"
     inkscape:window-height="1522"
     inkscape:window-x="2553"
     inkscape:window-y="0"
     inkscape:window-maximized="0" />
  <metadata
     id="metadata5">
    <rdf:RDF>
      <cc:Work
         rdf:about="">
        <dc:format>image/svg+xml</dc:format>
        <dc:type
           rdf:resource="http://purl.org/dc/dcmitype/StillImage" />
        <dc:title></dc:title>
      </cc:Work>
    </rdf:RDF>
  </metadata>
  <g
     inkscape:label="Layer 1"
     inkscape:groupmode="layer"
     id="layer1"
     transform="translate(-64.812867,-72.041441)">
    <g
       transform="translate(-24.6541,-36.235046)"
       id="layer1-7"
       inkscape:label="Layer 1">
      <g
         transform="matrix(0.26458333,0,0,0.26458333,88.14405,106.15982)"
         id="g3240">
        <g
           id="g3194">
          <path
             style="fill:#8bc34a"
             inkscape:connector-curvature="0"
             d="m 19,38 c 0,0 -1.938,-4 -7,-4 -5.062,0 -7,4 -7,4 v 2 h 14 z"
             id="path3190" />
          <path
             style="fill:#8bc34a"
             inkscape:connector-curvature="0"
             d="m 43,38 c 0,0 -1.938,-4 -7,-4 -5.062,0 -7,4 -7,4 v 2 h 14 z"
             id="path3192" />
        </g>
        <g
           id="g3200">
          <path
             style="fill:#ffa726"
             inkscape:connector-curvature="0"
             d="m 16,12 c 0,2.209 -1.791,4 -4,4 -2.209,0 -4,-1.791 -4,-4 0,-2.209 1.791,-4 4,-4 2.209,0 4,1.791 4,4"
             id="path3196" />
          <path
             style="fill:#ffa726"
             inkscape:connector-curvature="0"
             d="m 40,12 c 0,2.209 -1.791,4 -4,4 -2.209,0 -4,-1.791 -4,-4 0,-2.209 1.791,-4 4,-4 2.209,0 4,1.791 4,4"
             id="path3198" />
        </g>
        <g
           id="g3206">
          <path
             style="fill:#33691e"
             inkscape:connector-curvature="0"
             d="m 19,21 c 0,0 -1.938,-4 -7,-4 -5.062,0 -7,4 -7,4 v 2 h 14 z"
             id="path3202" />
          <path
             style="fill:#33691e"
             inkscape:connector-curvature="0"
             d="m 43,21 c 0,0 -1.938,-4 -7,-4 -5.062,0 -7,4 -7,4 v 2 h 14 z"
             id="path3204" />
        </g>
        <g
           id="g3214">
          <path
             style="fill:#ffb74d"
             inkscape:connector-curvature="0"
             d="m 16,29 c 0,2.209 -1.791,4 -4,4 -2.209,0 -4,-1.791 -4,-4 0,-2.209 1.791,-4 4,-4 2.209,0 4,1.791 4,4"
             id="path3208" />
          <path
             style="fill:#ffb74d"
             inkscape:connector-curvature="0"
             d="m 40,29 c 0,2.209 -1.791,4 -4,4 -2.209,0 -4,-1.791 -4,-4 0,-2.209 1.791,-4 4,-4 2.209,0 4,1.791 4,4"
             id="path3210" />
          <path
             style="fill:#ffb74d"
             inkscape:connector-curvature="0"
             d="m 28,21 c 0,2.209 -1.791,4 -4,4 -2.209,0 -4,-1.791 -4,-4 0,-2.209 1.791,-4 4,-4 2.209,0 4,1.791 4,4"
             id="path3212" />
        </g>
        <path
           style="fill:#689f38"
           inkscape:connector-curvature="0"
           d="m 31,30 c 0,0 -1.938,-4 -7,-4 -5.062,0 -7,4 -7,4 v 2 h 14 z"
           id="path3216" />
      </g>
    </g>
    <g
       id="g1554"
       transform="matrix(0.2075441,0,0,0.2075441,65.83216,72.032156)"
       style="fill:#c94a49;fill-opacity:1">
      <polygon
         style="fill:#c94a49;fill-opacity:1"
         points="31,30 38,35.6 38,24.4 "
         id="polygon1550" />
      <path
         style="fill:#c94a49;fill-opacity:1"
         inkscape:connector-curvature="0"
         d="m 38,28 c -0.3,0 -0.7,0 -1,0.1 v 4 C 37.3,32 37.7,32 38,32 c 3.3,0 6,2.7 6,6 0,3.3 -2.7,6 -6,6 -3.3,0 -6,-2.7 -6,-6 0,-0.3 0,-0.6 0.1,-0.9 L 28.7,34.4 C 28.3,35.5 28,36.7 28,38 c 0,5.5 4.5,10 10,10 5.5,0 10,-4.5 10,-10 0,-5.5 -4.5,-10 -10,-10 z"
         id="path1552" />
    </g>
  </g>
</svg>
