<?xml version="1.0" encoding="iso-8859-1"?>
<!-- Generator: Adobe Illustrator 19.1.1, SVG Export Plug-In . SVG Version: 6.00 Build 0)  -->
<svg version="1.1"  xmlns="http://www.w3.org/2000/svg" xmlns:xlink="http://www.w3.org/1999/xlink" x="0px" y="0px"
	 viewBox="0 0 48 48" style="enable-background:new 0 0 48 48;" xml:space="preserve">
<path style="fill:#FF754C;" d="M32,15v-2c0-1.106-0.896-2-2-2H18c-1.104,0-2,0.894-2,2v2H32z"/>
<path style="fill:#5EC08F;" d="M46,22H31v4h17v-2C48,22.895,47.104,22,46,22z"/>
<path style="fill:#7E8CCF;" d="M17,19H2c-1.105,0-2,0.895-2,2v2h17V19z"/>
<polygon style="fill:#FFBA57;" points="32,25 32,14 16,14 16,22 0,22 0,38 48,38 48,25 "/>
<g>
	<path style="fill:#FFE9B3;" d="M25,24h-1.65v-5.172l-1.621,0.464v-1.23L24.849,17H25V24z"/>
</g>
<g>
	<path style="fill:#FFE9B3;" d="M38.654,30.844h0.752c0.594,0,0.892-0.289,0.892-0.867c0-0.223-0.071-0.406-0.213-0.547
		c-0.142-0.145-0.342-0.215-0.601-0.215c-0.21,0-0.394,0.063-0.551,0.184c-0.155,0.121-0.233,0.274-0.233,0.453h-1.593
		c0-0.359,0.102-0.678,0.303-0.957c0.202-0.281,0.482-0.5,0.839-0.66C38.607,28.078,39.001,28,39.43,28
		c0.765,0,1.367,0.172,1.805,0.52c0.438,0.344,0.657,0.82,0.657,1.426c0,0.293-0.091,0.57-0.273,0.83
		c-0.181,0.26-0.444,0.471-0.791,0.635c0.366,0.129,0.652,0.328,0.859,0.594C41.896,32.273,42,32.602,42,32.992
		c0,0.609-0.236,1.098-0.709,1.461C40.818,34.816,40.198,35,39.43,35c-0.451,0-0.869-0.086-1.256-0.254
		c-0.385-0.172-0.678-0.406-0.876-0.707C37.099,33.738,37,33.395,37,33.012h1.602c0,0.211,0.086,0.391,0.256,0.543
		c0.17,0.152,0.38,0.23,0.628,0.23c0.28,0,0.504-0.079,0.671-0.232c0.168-0.154,0.251-0.352,0.251-0.592
		c0-0.344-0.087-0.586-0.261-0.73c-0.172-0.141-0.412-0.215-0.717-0.215h-0.775V30.844z"/>
</g>
<g>
	<path style="fill:#FFE9B3;" d="M11,32H6.144v-1.044l2.236-2.332c0.551-0.621,0.827-1.117,0.827-1.484
		c0-0.295-0.065-0.521-0.196-0.676c-0.131-0.154-0.32-0.232-0.569-0.232c-0.245,0-0.444,0.103-0.597,0.31
		c-0.154,0.208-0.229,0.465-0.229,0.774H6c0-0.422,0.107-0.813,0.32-1.172c0.213-0.359,0.51-0.641,0.89-0.842
		C7.59,25.102,8.013,25,8.48,25c0.753,0,1.33,0.172,1.738,0.516c0.405,0.344,0.609,0.84,0.609,1.484
		c0,0.271-0.051,0.535-0.152,0.795c-0.104,0.256-0.262,0.525-0.477,0.809c-0.215,0.283-0.561,0.662-1.04,1.135L8.261,30.77H11V32z"
		/>
</g>
</svg>
