<?xml version="1.0" encoding="UTF-8" standalone="no"?>
<!-- Created with Inkscape (http://www.inkscape.org/) -->

<svg
   xmlns:dc="http://purl.org/dc/elements/1.1/"
   xmlns:cc="http://creativecommons.org/ns#"
   xmlns:rdf="http://www.w3.org/1999/02/22-rdf-syntax-ns#"
   xmlns:svg="http://www.w3.org/2000/svg"
   xmlns="http://www.w3.org/2000/svg"
   xmlns:sodipodi="http://sodipodi.sourceforge.net/DTD/sodipodi-0.dtd"
   xmlns:inkscape="http://www.inkscape.org/namespaces/inkscape"
   width="11.37708mm"
   height="11.37708mm"
   viewBox="0 0 11.37708 11.37708"
   version="1.1"
   id="svg2045"
   inkscape:version="0.92.5 (2060ec1f9f, 2020-04-08)"
   sodipodi:docname="skippers.svg">
  <defs
     id="defs2039" />
  <sodipodi:namedview
     id="base"
     pagecolor="#ffffff"
     bordercolor="#666666"
     borderopacity="1.0"
     inkscape:pageopacity="0.0"
     inkscape:pageshadow="2"
     inkscape:zoom="1.979899"
     inkscape:cx="-40.355995"
     inkscape:cy="-26.652645"
     inkscape:document-units="mm"
     inkscape:current-layer="layer1"
     showgrid="false"
     inkscape:window-width="2388"
     inkscape:window-height="1522"
     inkscape:window-x="2553"
     inkscape:window-y="0"
     inkscape:window-maximized="0" />
  <metadata
     id="metadata2042">
    <rdf:RDF>
      <cc:Work
         rdf:about="">
        <dc:format>image/svg+xml</dc:format>
        <dc:type
           rdf:resource="http://purl.org/dc/dcmitype/StillImage" />
        <dc:title></dc:title>
      </cc:Work>
    </rdf:RDF>
  </metadata>
  <g
     inkscape:label="Layer 1"
     inkscape:groupmode="layer"
     id="layer1"
     transform="translate(-56.696428,-87.204319)">
    <g
       id="g2637"
       transform="matrix(0.26458333,0,0,0.26458333,56.034968,86.410567)">
      <path
         id="path2590"
         d="m 26,25 h -3 c -1.104,0 -2,0.896 -2,2 v 9 c 0,1.104 0.896,2 2,2 1.104,0 2,-0.896 2,-2 v -7 h 1 z"
         style="fill:#ffba57"
         inkscape:connector-curvature="0" />
      <path
         id="path2592"
         d="m 15.343,22.828 c 0.226,0 0.454,-0.051 0.67,-0.158 l 5.658,-2.328 c 0.144,-0.072 0.275,-0.166 0.39,-0.281 L 28,16 l -2,-3 -5.889,4.768 -5.44,2.219 C 13.93,20.357 13.63,21.258 14,22 c 0.263,0.523 0.793,0.828 1.343,0.828 z"
         style="fill:#ffba57"
         inkscape:connector-curvature="0" />
      <polygon
         id="polygon2594"
         points="30,27 35,27 35,38 31,38 "
         style="fill:#2d4c5c" />
      <path
         id="path2596"
         d="M 25.5,3 C 23.567,3 22,4.567 22,6.5 22,8.432 23.567,10 25.5,10 27.433,10 29,8.432 29,6.5 29,4.567 27.433,3 25.5,3"
         style="fill:#ffba57"
         inkscape:connector-curvature="0" />
      <path
         id="path2598"
         d="m 21.671,20.342 c 0.144,-0.072 0.275,-0.166 0.39,-0.281 L 28,16 26,13 20.111,17.768 Z"
         style="fill:#ec407a"
         inkscape:connector-curvature="0" />
      <path
         id="path2600"
         d="m 4,33 c 0,0 4,3 20,3 5,0 20,0 20,0 v 7 c 0,0 -11,0 -19,0 -8,0 -12,0 -12,0 -4,0 -9,-8 -9,-9 0,-0.553 0,-1 0,-1 z"
         style="fill:#5ec08f"
         inkscape:connector-curvature="0" />
      <line
         id="line2602"
         y2="41"
         x2="17"
         y1="8"
         x1="13"
         style="fill:none;stroke:#455a64;stroke-width:2" />
      <path
         id="path2604"
         d="m 14,44 h 7 C 20.375,38.625 17.574,37.156 17.137,34 h -2 C 15.293,37.188 13.688,38.25 14,44 Z"
         style="fill:#607d8b"
         inkscape:connector-curvature="0" />
      <path
         id="path2606"
         d="m 28.074,12.545 -8.22,-1.639 -5.627,-3.72 C 13.502,6.788 12.589,7.049 12.188,7.772 11.787,8.498 12.049,9.411 12.774,9.811 l 5.833,3.833 c 0.136,0.076 0.282,0.129 0.434,0.16 L 27,17 Z"
         style="fill:#ffba57"
         inkscape:connector-curvature="0" />
      <path
         id="path2608"
         d="M 34.875,25.5 31.157,14.227 c -0.452,-1.355 -1.709,-2.215 -3.064,-2.223 -0.208,-10e-4 -1.636,-0.002 -2.748,-0.003 l -5.491,-1.095 -1.248,2.738 c 0.136,0.076 0.282,0.129 0.434,0.16 l 5.398,2.167 c 0.031,0.107 0.05,0.197 0.084,0.31 l 4.186,11.273 c 0.196,0.587 0.548,1.074 0.988,1.445 H 33 c 1.844,-0.218 2.307,-2.203 1.875,-3.499 z"
         style="fill:#ff66a1"
         inkscape:connector-curvature="0" />
      <path
         id="path2610"
         d="m 44,40 c -3,0 -4,-2 -4,-2 0,0 -1,2 -4,2 -3,0 -4,-2 -4,-2 0,0 -1,2 -4,2 -3,0 -4,-2 -4,-2 0,0 -1,2 -4,2 -3,0 -4,-2 -4,-2 0,0 -1,2 -4,2 -3,0 -4,-2 -4,-2 0,0 -1,2 -4,2 v 6 h 4 32 4 z"
         style="fill:#7e8ccf"
         inkscape:connector-curvature="0" />
      <path
         id="path2612"
         d="m 44,42 c -3,0 -4,-2 -4,-2 0,0 -1,2 -4,2 -3,0 -4,-2 -4,-2 0,0 -1,2 -4,2 -3,0 -4,-2 -4,-2 0,0 -1,2 -4,2 -3,0 -4,-2 -4,-2 0,0 -1,2 -4,2 -3,0 -4,-2 -4,-2 0,0 -1,2 -4,2 v 4 h 4 32 4 z"
         style="fill:#c5cae9"
         inkscape:connector-curvature="0" />
      <path
         id="path2614"
         d="M 34.875,25.5 34.4,24.06 25,25 v 4 H 29.697 32 33 c 1.844,-0.219 2.307,-2.204 1.875,-3.5 z"
         style="fill:#546e7a"
         inkscape:connector-curvature="0" />
    </g>
  </g>
</svg>
