<?xml version="1.0" encoding="UTF-8" standalone="no"?>
<!-- Created with Inkscape (http://www.inkscape.org/) -->

<svg
   xmlns:dc="http://purl.org/dc/elements/1.1/"
   xmlns:cc="http://creativecommons.org/ns#"
   xmlns:rdf="http://www.w3.org/1999/02/22-rdf-syntax-ns#"
   xmlns:svg="http://www.w3.org/2000/svg"
   xmlns="http://www.w3.org/2000/svg"
   xmlns:sodipodi="http://sodipodi.sourceforge.net/DTD/sodipodi-0.dtd"
   xmlns:inkscape="http://www.inkscape.org/namespaces/inkscape"
   width="10.05417mm"
   height="10.05417mm"
   viewBox="0 0 10.05417 10.05417"
   version="1.1"
   id="svg2645"
   inkscape:version="0.92.5 (2060ec1f9f, 2020-04-08)"
   sodipodi:docname="team.svg">
  <defs
     id="defs2639" />
  <sodipodi:namedview
     id="base"
     pagecolor="#ffffff"
     bordercolor="#666666"
     borderopacity="1.0"
     inkscape:pageopacity="0.0"
     inkscape:pageshadow="2"
     inkscape:zoom="0.35"
     inkscape:cx="-425.28572"
     inkscape:cy="-118.28572"
     inkscape:document-units="mm"
     inkscape:current-layer="layer1"
     showgrid="false"
     inkscape:window-width="2388"
     inkscape:window-height="1522"
     inkscape:window-x="2553"
     inkscape:window-y="0"
     inkscape:window-maximized="0" />
  <metadata
     id="metadata2642">
    <rdf:RDF>
      <cc:Work
         rdf:about="">
        <dc:format>image/svg+xml</dc:format>
        <dc:type
           rdf:resource="http://purl.org/dc/dcmitype/StillImage" />
        <dc:title></dc:title>
      </cc:Work>
    </rdf:RDF>
  </metadata>
  <g
     inkscape:label="Layer 1"
     inkscape:groupmode="layer"
     id="layer1"
     transform="translate(-89.466965,-107.48274)">
    <g
       id="g3240"
       transform="matrix(0.26458333,0,0,0.26458333,88.14405,106.15982)">
      <g
         id="g3194">
	<path
   id="path3190"
   d="m 19,38 c 0,0 -1.938,-4 -7,-4 -5.062,0 -7,4 -7,4 v 2 h 14 z"
   inkscape:connector-curvature="0"
   style="fill:#8bc34a" />

	<path
   id="path3192"
   d="m 43,38 c 0,0 -1.938,-4 -7,-4 -5.062,0 -7,4 -7,4 v 2 h 14 z"
   inkscape:connector-curvature="0"
   style="fill:#8bc34a" />

</g>
      <g
         id="g3200">
	<path
   id="path3196"
   d="m 16,12 c 0,2.209 -1.791,4 -4,4 -2.209,0 -4,-1.791 -4,-4 0,-2.209 1.791,-4 4,-4 2.209,0 4,1.791 4,4"
   inkscape:connector-curvature="0"
   style="fill:#ffa726" />

	<path
   id="path3198"
   d="m 40,12 c 0,2.209 -1.791,4 -4,4 -2.209,0 -4,-1.791 -4,-4 0,-2.209 1.791,-4 4,-4 2.209,0 4,1.791 4,4"
   inkscape:connector-curvature="0"
   style="fill:#ffa726" />

</g>
      <g
         id="g3206">
	<path
   id="path3202"
   d="m 19,21 c 0,0 -1.938,-4 -7,-4 -5.062,0 -7,4 -7,4 v 2 h 14 z"
   inkscape:connector-curvature="0"
   style="fill:#33691e" />

	<path
   id="path3204"
   d="m 43,21 c 0,0 -1.938,-4 -7,-4 -5.062,0 -7,4 -7,4 v 2 h 14 z"
   inkscape:connector-curvature="0"
   style="fill:#33691e" />

</g>
      <g
         id="g3214">
	<path
   id="path3208"
   d="m 16,29 c 0,2.209 -1.791,4 -4,4 -2.209,0 -4,-1.791 -4,-4 0,-2.209 1.791,-4 4,-4 2.209,0 4,1.791 4,4"
   inkscape:connector-curvature="0"
   style="fill:#ffb74d" />

	<path
   id="path3210"
   d="m 40,29 c 0,2.209 -1.791,4 -4,4 -2.209,0 -4,-1.791 -4,-4 0,-2.209 1.791,-4 4,-4 2.209,0 4,1.791 4,4"
   inkscape:connector-curvature="0"
   style="fill:#ffb74d" />

	<path
   id="path3212"
   d="m 28,21 c 0,2.209 -1.791,4 -4,4 -2.209,0 -4,-1.791 -4,-4 0,-2.209 1.791,-4 4,-4 2.209,0 4,1.791 4,4"
   inkscape:connector-curvature="0"
   style="fill:#ffb74d" />

</g>
      <path
         id="path3216"
         d="m 31,30 c 0,0 -1.938,-4 -7,-4 -5.062,0 -7,4 -7,4 v 2 h 14 z"
         inkscape:connector-curvature="0"
         style="fill:#689f38" />
    </g>
  </g>
</svg>
