<?xml version="1.0" encoding="utf-8"?>
<!-- Generator: Adobe Illustrator 15.0.0, SVG Export Plug-In . SVG Version: 6.00 Build 0)  -->
<!DOCTYPE svg PUBLIC "-//W3C//DTD SVG 1.1//EN" "http://www.w3.org/Graphics/SVG/1.1/DTD/svg11.dtd">
<svg version="1.1"  xmlns="http://www.w3.org/2000/svg" xmlns:xlink="http://www.w3.org/1999/xlink" x="0px" y="0px"
	 width="48px" height="48px" viewBox="0 0 48 48" enable-background="new 0 0 48 48" xml:space="preserve">
<path fill="#546E7A" d="M35.89,17.478c-0.347,0.43-0.977,0.497-1.406,0.149l-3.11-2.515c-0.43-0.348-0.496-0.977-0.149-1.406
	l1.887-2.333c0.348-0.431,0.977-0.497,1.406-0.149l3.11,2.515c0.43,0.348,0.497,0.977,0.149,1.406L35.89,17.478z"/>
<rect x="21" y="9" fill="#455A64" width="6" height="4"/>
<circle fill="#EEEEEE" cx="24" cy="28" r="13.5"/>
<g>
	<path fill="#263238" d="M21.479,28.01c0,1.399,1.142,2.528,2.545,2.511c1.405-0.015,2.54-1.161,2.542-2.565
		c-0.004-1.4-1.143-2.521-2.553-2.506C22.61,25.464,21.472,26.61,21.479,28.01"/>
	<polygon fill="#263238" points="24,16.998 25.715,27.122 22.326,27.156 	"/>
</g>
<path fill="#00ACC1" d="M23.172,27.996c0.003,0.465,0.383,0.84,0.852,0.831c0.466-0.003,0.847-0.386,0.842-0.853
	c0.003-0.465-0.381-0.842-0.848-0.838C23.551,27.143,23.169,27.527,23.172,27.996"/>
<path fill="#00ACC1" d="M24,12c-8.835,0-16,7.165-16,16s7.165,16,16,16s16-7.165,16-16S32.835,12,24,12z M24,41
	c-7.181,0-13-5.819-13-13c0-7.18,5.819-13,13-13s13,5.82,13,13C37,35.181,31.181,41,24,41z"/>
<path fill="#90A4AE" d="M29,9c0,0.553-0.447,1-1,1h-8c-0.553,0-1-0.447-1-1V5c0-0.553,0.447-1,1-1h8c0.553,0,1,0.447,1,1V9z"/>
</svg>
