<?xml version="1.0" encoding="utf-8"?>
<!-- Generator: Adobe Illustrator 19.1.1, SVG Export Plug-In . SVG Version: 6.00 Build 0)  -->
<svg version="1.1"  xmlns="http://www.w3.org/2000/svg" xmlns:xlink="http://www.w3.org/1999/xlink" x="0px" y="0px"
	 viewBox="0 0 48 48" enable-background="new 0 0 48 48" xml:space="preserve">
<path fill="#3F51B5" d="M38,13c0,0.6-0.4,1-1,1H5c-0.6,0-1-0.4-1-1V6c0-0.6,0.4-1,1-1h32c0.6,0,1,0.4,1,1V13z"/>
<rect x="4" y="10" fill="#BBDEFB" width="34" height="29"/>
<path fill="#7CB342" d="M44,33c0,5.5-4.5,10-10,10c-5.5,0-10-4.5-10-10c0-5.5,4.5-10,10-10C39.5,23,44,27.5,44,33z"/>
<path fill="#1976D2" d="M31,21H15v-2h16V21z M31,15H15v2h16V15z M11,17h2v-2h-2V17z M11,21h2v-2h-2V21z M11,33h2v-2h-2V33z M11,25h2
	v-2h-2V25z M11,29h2v-2h-2V29z M23.6,27H15v2h7.7C22.9,28.3,23.3,27.6,23.6,27z M27.4,23H15v2h10.1C25.8,24.2,26.5,23.6,27.4,23z
	 M22.2,31H15v2h7c0-0.3,0-0.7,0.1-1C22.1,31.6,22.1,31.3,22.2,31z"/>
<path fill="#DCEDC8" d="M38,23.8c-1.2-0.5-2.6-0.8-4-0.8c-0.4,0-0.7,0-1,0.1c0,0-0.1,0-0.1,0c-0.3,0-0.6,0.1-0.9,0.1c0,0,0,0,0,0
	c-1.9,0.4-3.6,1.4-5,2.7L34,33v-5c2.2,0,4-1.8,4-4C38,23.9,38,23.9,38,23.8z"/>
<circle fill="#33691E" cx="34" cy="24" r="2"/>
<path fill="#FFFFFF" d="M37,26.7c-0.7,0.8-1.8,1.3-3,1.3c-1.2,0-2.2-0.5-3-1.3c-2.4,1.1-4,3.5-4,6.3c0,3.9,3.1,7,7,7
	c3.9,0,7-3.1,7-7C41,30.2,39.3,27.8,37,26.7z"/>
<path d="M34,31.5c-0.1,0-0.1,0-0.2,0l-6.2-6.2c-0.5,0.4-0.9,0.9-1.3,1.3l6.2,6.2c0,0,0,0.1,0,0.1c0,0.8,0.7,1.5,1.5,1.5
	c0.8,0,1.5-0.7,1.5-1.5C35.5,32.2,34.8,31.5,34,31.5z"/>
</svg>
