<?xml version="1.0" encoding="UTF-8" standalone="no"?>
<!-- Created with Inkscape (http://www.inkscape.org/) -->

<svg
   xmlns:dc="http://purl.org/dc/elements/1.1/"
   xmlns:cc="http://creativecommons.org/ns#"
   xmlns:rdf="http://www.w3.org/1999/02/22-rdf-syntax-ns#"
   xmlns:svg="http://www.w3.org/2000/svg"
   xmlns="http://www.w3.org/2000/svg"
   xmlns:sodipodi="http://sodipodi.sourceforge.net/DTD/sodipodi-0.dtd"
   xmlns:inkscape="http://www.inkscape.org/namespaces/inkscape"
   width="10.583333mm"
   height="10.054167mm"
   viewBox="0 0 10.583333 10.054167"
   version="1.1"
   id="svg8"
   inkscape:version="0.92.5 (2060ec1f9f, 2020-04-08)"
   sodipodi:docname="timetable.svg">
  <defs
     id="defs2" />
  <sodipodi:namedview
     id="base"
     pagecolor="#ffffff"
     bordercolor="#666666"
     borderopacity="1.0"
     inkscape:pageopacity="0.0"
     inkscape:pageshadow="2"
     inkscape:zoom="7.9195959"
     inkscape:cx="5.3876165"
     inkscape:cy="15.506279"
     inkscape:document-units="mm"
     inkscape:current-layer="layer1"
     showgrid="false"
     inkscape:window-width="2388"
     inkscape:window-height="1522"
     inkscape:window-x="2553"
     inkscape:window-y="0"
     inkscape:window-maximized="0" />
  <metadata
     id="metadata5">
    <rdf:RDF>
      <cc:Work
         rdf:about="">
        <dc:format>image/svg+xml</dc:format>
        <dc:type
           rdf:resource="http://purl.org/dc/dcmitype/StillImage" />
        <dc:title></dc:title>
      </cc:Work>
    </rdf:RDF>
  </metadata>
  <g
     inkscape:label="Layer 1"
     inkscape:groupmode="layer"
     id="layer1"
     transform="translate(-146.65476,-91.645536)">
    <g
       id="g847"
       transform="matrix(0.26458333,0,0,0.26458333,145.59643,90.322619)">
      <path
         id="path815"
         d="m 38,13 c 0,0.6 -0.4,1 -1,1 H 5 C 4.4,14 4,13.6 4,13 V 6 C 4,5.4 4.4,5 5,5 h 32 c 0.6,0 1,0.4 1,1 z"
         inkscape:connector-curvature="0"
         style="fill:#3f51b5" />
      <rect
         id="rect817"
         height="29"
         width="34"
         y="10"
         x="4"
         style="fill:#bbdefb" />
      <path
         id="path819"
         d="m 44,33 c 0,5.5 -4.5,10 -10,10 -5.5,0 -10,-4.5 -10,-10 0,-5.5 4.5,-10 10,-10 5.5,0 10,4.5 10,10 z"
         inkscape:connector-curvature="0"
         style="fill:#7cb342" />
      <path
         id="path821"
         d="M 31,21 H 15 v -2 h 16 z m 0,-6 H 15 v 2 h 16 z m -20,2 h 2 v -2 h -2 z m 0,4 h 2 v -2 h -2 z m 0,12 h 2 v -2 h -2 z m 0,-8 h 2 v -2 h -2 z m 0,4 h 2 V 27 H 11 Z M 23.6,27 H 15 v 2 h 7.7 c 0.2,-0.7 0.6,-1.4 0.9,-2 z m 3.8,-4 H 15 v 2 h 10.1 c 0.7,-0.8 1.4,-1.4 2.3,-2 z m -5.2,8 H 15 v 2 h 7 c 0,-0.3 0,-0.7 0.1,-1 0,-0.4 0,-0.7 0.1,-1 z"
         inkscape:connector-curvature="0"
         style="fill:#1976d2" />
      <path
         id="path823"
         d="M 38,23.8 C 36.8,23.3 35.4,23 34,23 c -0.4,0 -0.7,0 -1,0.1 0,0 -0.1,0 -0.1,0 -0.3,0 -0.6,0.1 -0.9,0.1 0,0 0,0 0,0 -1.9,0.4 -3.6,1.4 -5,2.7 l 7,7.1 v -5 c 2.2,0 4,-1.8 4,-4 0,-0.1 0,-0.1 0,-0.2 z"
         inkscape:connector-curvature="0"
         style="fill:#dcedc8" />
      <circle
         id="circle825"
         r="2"
         cy="24"
         cx="34"
         style="fill:#33691e" />
      <path
         id="path827"
         d="m 37,26.7 c -0.7,0.8 -1.8,1.3 -3,1.3 -1.2,0 -2.2,-0.5 -3,-1.3 -2.4,1.1 -4,3.5 -4,6.3 0,3.9 3.1,7 7,7 3.9,0 7,-3.1 7,-7 0,-2.8 -1.7,-5.2 -4,-6.3 z"
         inkscape:connector-curvature="0"
         style="fill:#ffffff" />
      <path
         id="path829"
         d="m 34,31.5 c -0.1,0 -0.1,0 -0.2,0 l -6.2,-6.2 c -0.5,0.4 -0.9,0.9 -1.3,1.3 l 6.2,6.2 c 0,0 0,0.1 0,0.1 0,0.8 0.7,1.5 1.5,1.5 0.8,0 1.5,-0.7 1.5,-1.5 0,-0.7 -0.7,-1.4 -1.5,-1.4 z"
         inkscape:connector-curvature="0" />
    </g>
  </g>
</svg>
