<?xml version="1.0" encoding="UTF-8" standalone="no"?>
<!-- Created with Inkscape (http://www.inkscape.org/) -->

<svg
   xmlns:dc="http://purl.org/dc/elements/1.1/"
   xmlns:cc="http://creativecommons.org/ns#"
   xmlns:rdf="http://www.w3.org/1999/02/22-rdf-syntax-ns#"
   xmlns:svg="http://www.w3.org/2000/svg"
   xmlns="http://www.w3.org/2000/svg"
   xmlns:sodipodi="http://sodipodi.sourceforge.net/DTD/sodipodi-0.dtd"
   xmlns:inkscape="http://www.inkscape.org/namespaces/inkscape"
   width="11.01738mm"
   height="11.01738mm"
   viewBox="0 0 11.01738 11.01738"
   version="1.1"
   id="svg3248"
   inkscape:version="0.92.5 (2060ec1f9f, 2020-04-08)"
   sodipodi:docname="trashTeam.svg">
  <defs
     id="defs3242" />
  <sodipodi:namedview
     id="base"
     pagecolor="#ffffff"
     bordercolor="#666666"
     borderopacity="1.0"
     inkscape:pageopacity="0.0"
     inkscape:pageshadow="2"
     inkscape:zoom="0.35"
     inkscape:cx="-177.75119"
     inkscape:cy="-160.56853"
     inkscape:document-units="mm"
     inkscape:current-layer="layer1"
     showgrid="false"
     inkscape:window-width="2388"
     inkscape:window-height="1522"
     inkscape:window-x="2553"
     inkscape:window-y="0"
     inkscape:window-maximized="0" />
  <metadata
     id="metadata3245">
    <rdf:RDF>
      <cc:Work
         rdf:about="">
        <dc:format>image/svg+xml</dc:format>
        <dc:type
           rdf:resource="http://purl.org/dc/dcmitype/StillImage" />
        <dc:title></dc:title>
      </cc:Work>
    </rdf:RDF>
  </metadata>
  <g
     inkscape:label="Layer 1"
     inkscape:groupmode="layer"
     id="layer1"
     transform="translate(-23.973455,-95.332196)">
    <g
       id="g3833"
       transform="matrix(0.26458333,0,0,0.26458333,22.65054,93.582977)">
      <g
         id="g5992">
	<path
   id="path5988"
   d="m 19,38 c 0,0 -1.938,-4 -7,-4 -5.062,0 -7,4 -7,4 v 2 h 14 z"
   inkscape:connector-curvature="0"
   style="fill:#8bc34a" />

	<path
   id="path5990"
   d="m 43,38 c 0,0 -1.938,-4 -7,-4 -5.062,0 -7,4 -7,4 v 2 h 14 z"
   inkscape:connector-curvature="0"
   style="fill:#8bc34a" />

</g>
      <g
         id="g5998">
	<path
   id="path5994"
   d="m 16,12 c 0,2.209 -1.791,4 -4,4 -2.209,0 -4,-1.791 -4,-4 0,-2.209 1.791,-4 4,-4 2.209,0 4,1.791 4,4"
   inkscape:connector-curvature="0"
   style="fill:#ffa726" />

	<path
   id="path5996"
   d="m 40,12 c 0,2.209 -1.791,4 -4,4 -2.209,0 -4,-1.791 -4,-4 0,-2.209 1.791,-4 4,-4 2.209,0 4,1.791 4,4"
   inkscape:connector-curvature="0"
   style="fill:#ffa726" />

</g>
      <g
         id="g6004">
	<path
   id="path6000"
   d="m 19,21 c 0,0 -1.938,-4 -7,-4 -5.062,0 -7,4 -7,4 v 2 h 14 z"
   inkscape:connector-curvature="0"
   style="fill:#33691e" />

	<path
   id="path6002"
   d="m 43,21 c 0,0 -1.938,-4 -7,-4 -5.062,0 -7,4 -7,4 v 2 h 14 z"
   inkscape:connector-curvature="0"
   style="fill:#33691e" />

</g>
      <g
         id="g6012">
	<path
   id="path6006"
   d="m 16,29 c 0,2.209 -1.791,4 -4,4 -2.209,0 -4,-1.791 -4,-4 0,-2.209 1.791,-4 4,-4 2.209,0 4,1.791 4,4"
   inkscape:connector-curvature="0"
   style="fill:#ffb74d" />

	<path
   id="path6008"
   d="m 40,29 c 0,2.209 -1.791,4 -4,4 -2.209,0 -4,-1.791 -4,-4 0,-2.209 1.791,-4 4,-4 2.209,0 4,1.791 4,4"
   inkscape:connector-curvature="0"
   style="fill:#ffb74d" />

	<path
   id="path6010"
   d="m 28,21 c 0,2.209 -1.791,4 -4,4 -2.209,0 -4,-1.791 -4,-4 0,-2.209 1.791,-4 4,-4 2.209,0 4,1.791 4,4"
   inkscape:connector-curvature="0"
   style="fill:#ffb74d" />

</g>
      <path
         id="path6014"
         d="m 31,30 c 0,0 -1.938,-4 -7,-4 -5.062,0 -7,4 -7,4 v 2 h 14 z"
         inkscape:connector-curvature="0"
         style="fill:#689f38" />
      <g
         id="g901"
         transform="matrix(3.7795276,0,0,3.7795276,-456.80322,-490.02463)">
        <path
           style="fill:#9575cd;stroke-width:0.26458332"
           inkscape:connector-curvature="0"
           d="m 129.23406,137.289 v 3.96875 c 0,0.42333 0.34395,0.79375 0.79375,0.79375 h 2.11666 c 0.44979,0 0.79375,-0.37042 0.79375,-0.79375 V 137.289 l -0.79375,-0.26459 -0.52916,-0.52916 h -1.05834 l -0.52916,0.52916 z"
           id="path819-1" />
        <path
           style="fill:#7454b3;stroke-width:0.26458332"
           inkscape:connector-curvature="0"
           d="m 130.02781,141.25775 v 0 c -0.15875,0 -0.26459,-0.10584 -0.26459,-0.26459 v -2.11666 c 0,-0.15875 0.10584,-0.26459 0.26459,-0.26459 v 0 c 0.15875,0 0.26458,0.10584 0.26458,0.26459 v 2.11666 c 0,0.15875 -0.10583,0.26459 -0.26458,0.26459 z m 2.38125,-0.26459 v -2.11666 c 0,-0.15875 -0.10584,-0.26459 -0.26459,-0.26459 v 0 c -0.15875,0 -0.26458,0.10584 -0.26458,0.26459 v 2.11666 c 0,0.15875 0.10583,0.26459 0.26458,0.26459 v 0 c 0.15875,0 0.26459,-0.10584 0.26459,-0.26459 z m -1.05834,0 v -2.11666 c 0,-0.15875 -0.10583,-0.26459 -0.26458,-0.26459 v 0 c -0.15875,0 -0.26458,0.10584 -0.26458,0.26459 v 2.11666 c 0,0.15875 0.10583,0.26459 0.26458,0.26459 v 0 c 0.15875,0 0.26458,-0.10584 0.26458,-0.26459 z"
           id="path821-2" />
        <path
           style="fill:#b39ddb;stroke-width:0.26458332"
           inkscape:connector-curvature="0"
           d="m 133.20281,137.81816 h -4.23334 v -0.29104 c 0,-0.29104 0.23813,-0.50271 0.50271,-0.50271 h 3.22792 c 0.29104,0 0.50271,0.23813 0.50271,0.50271 z"
           id="path823-9" />
      </g>
    </g>
  </g>
</svg>
