<?xml version="1.0" encoding="UTF-8" standalone="no"?>
<!-- Created with Inkscape (http://www.inkscape.org/) -->

<svg
   xmlns:dc="http://purl.org/dc/elements/1.1/"
   xmlns:cc="http://creativecommons.org/ns#"
   xmlns:rdf="http://www.w3.org/1999/02/22-rdf-syntax-ns#"
   xmlns:svg="http://www.w3.org/2000/svg"
   xmlns="http://www.w3.org/2000/svg"
   xmlns:sodipodi="http://sodipodi.sourceforge.net/DTD/sodipodi-0.dtd"
   xmlns:inkscape="http://www.inkscape.org/namespaces/inkscape"
   width="11.377082mm"
   height="11.641673mm"
   viewBox="0 0 11.377082 11.641673"
   version="1.1"
   id="svg8"
   sodipodi:docname="trashTraining.svg"
   inkscape:version="0.92.5 (2060ec1f9f, 2020-04-08)">
  <defs
     id="defs2" />
  <sodipodi:namedview
     id="base"
     pagecolor="#ffffff"
     bordercolor="#666666"
     borderopacity="1.0"
     inkscape:pageopacity="0.0"
     inkscape:pageshadow="2"
     inkscape:zoom="5.6"
     inkscape:cx="-13.624788"
     inkscape:cy="72.279711"
     inkscape:document-units="mm"
     inkscape:current-layer="layer1"
     showgrid="false"
     inkscape:window-width="2388"
     inkscape:window-height="1522"
     inkscape:window-x="2553"
     inkscape:window-y="0"
     inkscape:window-maximized="0" />
  <metadata
     id="metadata5">
    <rdf:RDF>
      <cc:Work
         rdf:about="">
        <dc:format>image/svg+xml</dc:format>
        <dc:type
           rdf:resource="http://purl.org/dc/dcmitype/StillImage" />
        <dc:title></dc:title>
      </cc:Work>
    </rdf:RDF>
  </metadata>
  <g
     inkscape:label="Layer 1"
     inkscape:groupmode="layer"
     id="layer1"
     transform="translate(-75.954316,-111.2625)">
    <g
       transform="matrix(1.0682773,0,0,1.0682773,-47.57801,54.082415)"
       id="layer1-7"
       inkscape:label="Layer 1">
      <g
         transform="matrix(0.26458333,0,0,0.26458333,114.56931,51.693453)"
         id="g2037">
        <path
           inkscape:connector-curvature="0"
           style="fill:#5ec08f"
           d="M 31.029,29 36.12,18 h -5.429 c -10e-4,0 -0.002,0 -0.003,0 -1.344,-0.023 -2.64,0.735 -3.24,2.035 L 23.311,29 Z"
           id="path1996" />
        <path
           inkscape:connector-curvature="0"
           style="fill:#5ec08f"
           d="m 17.667,31 4.072,-7 h -6.824 c -0.137,0.152 -0.275,0.304 -0.382,0.487 L 10.734,31 Z"
           id="path1998" />
        <path
           inkscape:connector-curvature="0"
           style="fill:#ff754c"
           d="m 37.125,22 c -5.941,0 -10.447,8 -27,8 -2.485,0 -4,1.515 -4,4 0,2.485 2.015,4 4.5,4 19.762,0 31.5,-4.31 31.5,-11 0,-2.761 -2.238,-5 -5,-5 z"
           id="path2000" />
        <path
           inkscape:connector-curvature="0"
           style="fill:#ffba57"
           d="m 32.625,10 c -1.933,0 -3.5,1.567 -3.5,3.5 0,1.932 1.567,3.5 3.5,3.5 1.933,0 3.5,-1.568 3.5,-3.5 0,-1.933 -1.567,-3.5 -3.5,-3.5"
           id="path2002" />
        <path
           inkscape:connector-curvature="0"
           style="fill:#ffba57"
           d="m 19.125,16 c -1.657,0 -3,1.343 -3,3 0,1.656 1.343,3 3,3 1.657,0 3,-1.344 3,-3 0,-1.657 -1.343,-3 -3,-3"
           id="path2004" />
        <line
           style="fill:none;stroke:#455a64;stroke-width:2"
           x1="15.344"
           y1="24"
           x2="7.125"
           y2="40"
           id="line2006" />
        <path
           inkscape:connector-curvature="0"
           style="fill:#ffba57"
           d="m 21.625,26 h -6 c -0.825,0 -1.5,-0.675 -1.5,-1.5 v 0 c 0,-0.825 0.675,-1.5 1.5,-1.5 h 6 c 0.825,0 1.5,0.675 1.5,1.5 v 0 c 0,0.825 -0.675,1.5 -1.5,1.5 z"
           id="path2008" />
        <line
           style="fill:none;stroke:#455a64;stroke-width:2"
           x1="28.344"
           y1="19"
           x2="18.125"
           y2="40"
           id="line2010" />
        <path
           inkscape:connector-curvature="0"
           style="fill:#ffba57"
           d="m 36.625,21 h -8 c -0.825,0 -1.5,-0.675 -1.5,-1.5 v 0 c 0,-0.825 0.675,-1.5 1.5,-1.5 h 8 c 0.825,0 1.5,0.675 1.5,1.5 v 0 c 0,0.825 -0.675,1.5 -1.5,1.5 z"
           id="path2012" />
        <path
           inkscape:connector-curvature="0"
           style="fill:#7e8ccf"
           d="m 44.125,36 c 0,-4.142 -3.876,-4.975 -7,-5.001 -2.109,-0.018 -3.875,0.313 -3.875,0.313 0,0 -16.563,4.688 -21.125,4.688 -3,0 -4,-2 -4,-2 0,0 -1,2 -4,2 v 8 h 40 z"
           id="path2014" />
        <path
           inkscape:connector-curvature="0"
           style="fill:#c5cae9"
           d="m 44.125,41.999 c 0,-3.813 -4.438,-6 -8,-6 -3.563,0 -21,2.001 -24,2.001 -3,0 -4,-2 -4,-2 0,0 -1,2 -4,2 v 6 h 40 z"
           id="path2016" />
      </g>
    </g>
  </g>
  <g
     inkscape:groupmode="layer"
     id="layer2"
     inkscape:label="Layer 2">
    <g
       style=""
       transform="translate(-121.87297,-130.45707)"
       id="g901">
      <path
         id="path819-1"
         d="m 129.23406,137.289 v 3.96875 c 0,0.42333 0.34395,0.79375 0.79375,0.79375 h 2.11666 c 0.44979,0 0.79375,-0.37042 0.79375,-0.79375 V 137.289 l -0.79375,-0.26459 -0.52916,-0.52916 h -1.05834 l -0.52916,0.52916 z"
         inkscape:connector-curvature="0"
         style="fill:#9575cd;stroke-width:0.26458332" />
      <path
         id="path821-2"
         d="m 130.02781,141.25775 v 0 c -0.15875,0 -0.26459,-0.10584 -0.26459,-0.26459 v -2.11666 c 0,-0.15875 0.10584,-0.26459 0.26459,-0.26459 v 0 c 0.15875,0 0.26458,0.10584 0.26458,0.26459 v 2.11666 c 0,0.15875 -0.10583,0.26459 -0.26458,0.26459 z m 2.38125,-0.26459 v -2.11666 c 0,-0.15875 -0.10584,-0.26459 -0.26459,-0.26459 v 0 c -0.15875,0 -0.26458,0.10584 -0.26458,0.26459 v 2.11666 c 0,0.15875 0.10583,0.26459 0.26458,0.26459 v 0 c 0.15875,0 0.26459,-0.10584 0.26459,-0.26459 z m -1.05834,0 v -2.11666 c 0,-0.15875 -0.10583,-0.26459 -0.26458,-0.26459 v 0 c -0.15875,0 -0.26458,0.10584 -0.26458,0.26459 v 2.11666 c 0,0.15875 0.10583,0.26459 0.26458,0.26459 v 0 c 0.15875,0 0.26458,-0.10584 0.26458,-0.26459 z"
         inkscape:connector-curvature="0"
         style="fill:#7454b3;stroke-width:0.26458332" />
      <path
         id="path823-9"
         d="m 133.20281,137.81816 h -4.23334 v -0.29104 c 0,-0.29104 0.23813,-0.50271 0.50271,-0.50271 h 3.22792 c 0.29104,0 0.50271,0.23813 0.50271,0.50271 z"
         inkscape:connector-curvature="0"
         style="fill:#b39ddb;stroke-width:0.26458332" />
    </g>
  </g>
</svg>
