<?xml version="1.0" encoding="utf-8"?>
<!-- Generator: Adobe Illustrator 19.1.1, SVG Export Plug-In . SVG Version: 6.00 Build 0)  -->
<svg version="1.1"  xmlns="http://www.w3.org/2000/svg" xmlns:xlink="http://www.w3.org/1999/xlink" x="0px" y="0px"
	 viewBox="0 0 48 48" enable-background="new 0 0 48 48" xml:space="preserve">
<path fill="#3F51B5" d="M38,13c0,0.6-0.4,1-1,1H5c-0.6,0-1-0.4-1-1V6c0-0.6,0.4-1,1-1h32c0.6,0,1,0.4,1,1V13z"/>
<rect x="4" y="10" fill="#BBDEFB" width="34" height="29"/>
<path fill="#9575CD" d="M29,26l0,15c0,1.6,1.3,3,3,3h8c1.7,0,3-1.4,3-3l0-15l-3-1l-2-2h-4l-2,2L29,26z"/>
<path fill="#7454B3" d="M32,41L32,41c-0.6,0-1-0.4-1-1v-8c0-0.6,0.4-1,1-1h0c0.6,0,1,0.4,1,1v8C33,40.6,32.6,41,32,41z M41,40v-8
	c0-0.6-0.4-1-1-1l0,0c-0.6,0-1,0.4-1,1v8c0,0.6,0.4,1,1,1l0,0C40.6,41,41,40.6,41,40z M37,40v-8c0-0.6-0.4-1-1-1l0,0
	c-0.6,0-1,0.4-1,1v8c0,0.6,0.4,1,1,1l0,0C36.6,41,37,40.6,37,40z"/>
<path fill="#B39DDB" d="M44,28H28v-1.1c0-1.1,0.9-1.9,1.9-1.9h12.2c1.1,0,1.9,0.9,1.9,1.9V28z"/>
<path fill="#1976D2" d="M31,21H15v-2h16V21z M31,15H15v2h16V15z M27,31H15v2h12V31z M11,17h2v-2h-2V17z M11,21h2v-2h-2V21z M11,33h2
	v-2h-2V33z M11,25h2v-2h-2V25z M11,29h2v-2h-2V29z M29.9,23H15v2h11.5C27.2,23.8,28.5,23,29.9,23z M26,28v-1H15v2h11V28z"/>
</svg>
