<?xml version="1.0" encoding="UTF-8" standalone="no"?>
<!-- Generator: Adobe Illustrator 19.1.1, SVG Export Plug-In . SVG Version: 6.00 Build 0)  -->

<svg
   xmlns:dc="http://purl.org/dc/elements/1.1/"
   xmlns:cc="http://creativecommons.org/ns#"
   xmlns:rdf="http://www.w3.org/1999/02/22-rdf-syntax-ns#"
   xmlns:svg="http://www.w3.org/2000/svg"
   xmlns="http://www.w3.org/2000/svg"
   xmlns:sodipodi="http://sodipodi.sourceforge.net/DTD/sodipodi-0.dtd"
   xmlns:inkscape="http://www.inkscape.org/namespaces/inkscape"
   version="1.1"
   x="0px"
   y="0px"
   viewBox="0 0 48 48"
   style="enable-background:new 0 0 48 48;"
   xml:space="preserve"
   id="svg1059"
   sodipodi:docname="trashSkippers.svg"
   inkscape:version="0.92.5 (2060ec1f9f, 2020-04-08)"><metadata
   id="metadata1065"><rdf:RDF><cc:Work
       rdf:about=""><dc:format>image/svg+xml</dc:format><dc:type
         rdf:resource="http://purl.org/dc/dcmitype/StillImage" /><dc:title></dc:title></cc:Work></rdf:RDF></metadata><defs
   id="defs1063" /><sodipodi:namedview
   pagecolor="#ffffff"
   bordercolor="#666666"
   borderopacity="1"
   objecttolerance="10"
   gridtolerance="10"
   guidetolerance="10"
   inkscape:pageopacity="0"
   inkscape:pageshadow="2"
   inkscape:window-width="1174"
   inkscape:window-height="866"
   id="namedview1061"
   showgrid="false"
   inkscape:zoom="9.8333333"
   inkscape:cx="21.924423"
   inkscape:cy="21.965074"
   inkscape:window-x="2876"
   inkscape:window-y="305"
   inkscape:window-maximized="0"
   inkscape:current-layer="svg1059" />
<path
   style="fill:#FFBA57;"
   d="M26,25h-3c-1.104,0-2,0.896-2,2v9c0,1.104,0.896,2,2,2s2-0.896,2-2v-7h1V25z"
   id="path1033" />
<path
   style="fill:#FFBA57;"
   d="M15.343,22.828c0.226,0,0.454-0.051,0.67-0.158l5.658-2.328c0.144-0.072,0.275-0.166,0.39-0.281  L28,16l-2-3l-5.889,4.768l-5.44,2.219C13.93,20.357,13.63,21.258,14,22C14.263,22.523,14.793,22.828,15.343,22.828z"
   id="path1035" />
<polygon
   style="fill:#2D4C5C;"
   points="35,38 31,38 30,27 35,27 "
   id="polygon1037" />
<path
   style="fill:#FFBA57;"
   d="M25.5,3C23.567,3,22,4.567,22,6.5c0,1.932,1.567,3.5,3.5,3.5S29,8.432,29,6.5  C29,4.567,27.433,3,25.5,3"
   id="path1039" />
<path
   style="fill:#EC407A;"
   d="M21.671,20.342c0.144-0.072,0.275-0.166,0.39-0.281L28,16l-2-3l-5.889,4.768L21.671,20.342z"
   id="path1041" />
<path
   style="fill:#5EC08F;"
   d="M4,33c0,0,4,3,20,3c5,0,20,0,20,0v7c0,0-11,0-19,0s-12,0-12,0c-4,0-9-8-9-9C4,33.447,4,33,4,33z"
   id="path1043" />
<line
   style="fill:none;stroke:#455A64;stroke-width:2;"
   x1="13"
   y1="8"
   x2="17"
   y2="41"
   id="line1045" />
<path
   style="fill:#607D8B;"
   d="M14,44h7c-0.625-5.375-3.426-6.844-3.863-10h-2C15.293,37.188,13.688,38.25,14,44z"
   id="path1047" />
<path
   style="fill:#FFBA57;"
   d="M28.074,12.545l-8.22-1.639l-5.627-3.72c-0.725-0.398-1.638-0.137-2.039,0.586  c-0.401,0.726-0.139,1.639,0.586,2.039l5.833,3.833c0.136,0.076,0.282,0.129,0.434,0.16L27,17L28.074,12.545z"
   id="path1049" />
<path
   style="fill:#FF66A1;"
   d="M34.875,25.5l-3.718-11.273c-0.452-1.355-1.709-2.215-3.064-2.223  c-0.208-0.001-1.636-0.002-2.748-0.003l-5.491-1.095l-1.248,2.738c0.136,0.076,0.282,0.129,0.434,0.16l5.398,2.167  c0.031,0.107,0.05,0.197,0.084,0.31l4.186,11.273c0.196,0.587,0.548,1.074,0.988,1.445H33C34.844,28.781,35.307,26.796,34.875,25.5z  "
   id="path1051" />
<path
   style="fill:#7E8CCF;"
   d="M44,40c-3,0-4-2-4-2s-1,2-4,2s-4-2-4-2s-1,2-4,2s-4-2-4-2s-1,2-4,2s-4-2-4-2s-1,2-4,2s-4-2-4-2  s-1,2-4,2v6h4h32h4V40z"
   id="path1053" />
<path
   style="fill:#C5CAE9;"
   d="M44,42c-3,0-4-2-4-2s-1,2-4,2s-4-2-4-2s-1,2-4,2s-4-2-4-2s-1,2-4,2s-4-2-4-2s-1,2-4,2s-4-2-4-2  s-1,2-4,2v4h4h32h4V42z"
   id="path1055" />
<path
   style="fill:#546E7A;"
   d="M34.875,25.5L34.4,24.06L25,25v4h4.697H32h1C34.844,28.781,35.307,26.796,34.875,25.5z"
   id="path1057" />
<g
   transform="matrix(3.7795276,0,0,3.7795276,-456.4437,-489.88754)"
   id="g901"><path
     id="path819-1"
     d="m 129.23406,137.289 v 3.96875 c 0,0.42333 0.34395,0.79375 0.79375,0.79375 h 2.11666 c 0.44979,0 0.79375,-0.37042 0.79375,-0.79375 V 137.289 l -0.79375,-0.26459 -0.52916,-0.52916 h -1.05834 l -0.52916,0.52916 z"
     inkscape:connector-curvature="0"
     style="fill:#9575cd;stroke-width:0.26458332" /><path
     id="path821-2"
     d="m 130.02781,141.25775 v 0 c -0.15875,0 -0.26459,-0.10584 -0.26459,-0.26459 v -2.11666 c 0,-0.15875 0.10584,-0.26459 0.26459,-0.26459 v 0 c 0.15875,0 0.26458,0.10584 0.26458,0.26459 v 2.11666 c 0,0.15875 -0.10583,0.26459 -0.26458,0.26459 z m 2.38125,-0.26459 v -2.11666 c 0,-0.15875 -0.10584,-0.26459 -0.26459,-0.26459 v 0 c -0.15875,0 -0.26458,0.10584 -0.26458,0.26459 v 2.11666 c 0,0.15875 0.10583,0.26459 0.26458,0.26459 v 0 c 0.15875,0 0.26459,-0.10584 0.26459,-0.26459 z m -1.05834,0 v -2.11666 c 0,-0.15875 -0.10583,-0.26459 -0.26458,-0.26459 v 0 c -0.15875,0 -0.26458,0.10584 -0.26458,0.26459 v 2.11666 c 0,0.15875 0.10583,0.26459 0.26458,0.26459 v 0 c 0.15875,0 0.26458,-0.10584 0.26458,-0.26459 z"
     inkscape:connector-curvature="0"
     style="fill:#7454b3;stroke-width:0.26458332" /><path
     id="path823-9"
     d="m 133.20281,137.81816 h -4.23334 v -0.29104 c 0,-0.29104 0.23813,-0.50271 0.50271,-0.50271 h 3.22792 c 0.29104,0 0.50271,0.23813 0.50271,0.50271 z"
     inkscape:connector-curvature="0"
     style="fill:#b39ddb;stroke-width:0.26458332" /></g></svg>