<?xml version="1.0" encoding="UTF-8" standalone="no"?>
<!-- Generator: Adobe Illustrator 15.0.0, SVG Export Plug-In . SVG Version: 6.00 Build 0)  -->

<svg
   xmlns:dc="http://purl.org/dc/elements/1.1/"
   xmlns:cc="http://creativecommons.org/ns#"
   xmlns:rdf="http://www.w3.org/1999/02/22-rdf-syntax-ns#"
   xmlns:svg="http://www.w3.org/2000/svg"
   xmlns="http://www.w3.org/2000/svg"
   xmlns:sodipodi="http://sodipodi.sourceforge.net/DTD/sodipodi-0.dtd"
   xmlns:inkscape="http://www.inkscape.org/namespaces/inkscape"
   version="1.1"
   x="0px"
   y="0px"
   width="48px"
   height="48px"
   viewBox="0 0 48 48"
   enable-background="new 0 0 48 48"
   xml:space="preserve"
   id="svg6016"
   sodipodi:docname="trashTeam.svg"
   inkscape:version="0.92.5 (2060ec1f9f, 2020-04-08)"><metadata
   id="metadata6022"><rdf:RDF><cc:Work
       rdf:about=""><dc:format>image/svg+xml</dc:format><dc:type
         rdf:resource="http://purl.org/dc/dcmitype/StillImage" /><dc:title></dc:title></cc:Work></rdf:RDF></metadata><defs
   id="defs6020" /><sodipodi:namedview
   pagecolor="#ffffff"
   bordercolor="#666666"
   borderopacity="1"
   objecttolerance="10"
   gridtolerance="10"
   guidetolerance="10"
   inkscape:pageopacity="0"
   inkscape:pageshadow="2"
   inkscape:window-width="1224"
   inkscape:window-height="917"
   id="namedview6018"
   showgrid="false"
   inkscape:zoom="6.9532167"
   inkscape:cx="35.328645"
   inkscape:cy="24.746034"
   inkscape:window-x="2898"
   inkscape:window-y="329"
   inkscape:window-maximized="0"
   inkscape:current-layer="svg6016" />
<g
   id="g5992">
	<path
   fill="#8BC34A"
   d="M19,38c0,0-1.938-4-7-4s-7,4-7,4v2h14V38z"
   id="path5988" />
	<path
   fill="#8BC34A"
   d="M43,38c0,0-1.938-4-7-4s-7,4-7,4v2h14V38z"
   id="path5990" />
</g>
<g
   id="g5998">
	<path
   fill="#FFA726"
   d="M16,12c0,2.209-1.791,4-4,4s-4-1.791-4-4s1.791-4,4-4S16,9.791,16,12"
   id="path5994" />
	<path
   fill="#FFA726"
   d="M40,12c0,2.209-1.791,4-4,4s-4-1.791-4-4s1.791-4,4-4S40,9.791,40,12"
   id="path5996" />
</g>
<g
   id="g6004">
	<path
   fill="#33691E"
   d="M19,21c0,0-1.938-4-7-4s-7,4-7,4v2h14V21z"
   id="path6000" />
	<path
   fill="#33691E"
   d="M43,21c0,0-1.938-4-7-4s-7,4-7,4v2h14V21z"
   id="path6002" />
</g>
<g
   id="g6012">
	<path
   fill="#FFB74D"
   d="M16,29c0,2.209-1.791,4-4,4s-4-1.791-4-4s1.791-4,4-4S16,26.791,16,29"
   id="path6006" />
	<path
   fill="#FFB74D"
   d="M40,29c0,2.209-1.791,4-4,4s-4-1.791-4-4s1.791-4,4-4S40,26.791,40,29"
   id="path6008" />
	<path
   fill="#FFB74D"
   d="M28,21c0,2.209-1.791,4-4,4s-4-1.791-4-4s1.791-4,4-4S28,18.791,28,21"
   id="path6010" />
</g>
<path
   fill="#689F38"
   d="M31,30c0,0-1.938-4-7-4c-5.062,0-7,4-7,4v2h14V30z"
   id="path6014" />
<g
   transform="matrix(3.7795276,0,0,3.7795276,-456.80322,-490.02463)"
   id="g901"><path
     id="path819-1"
     d="m 129.23406,137.289 v 3.96875 c 0,0.42333 0.34395,0.79375 0.79375,0.79375 h 2.11666 c 0.44979,0 0.79375,-0.37042 0.79375,-0.79375 V 137.289 l -0.79375,-0.26459 -0.52916,-0.52916 h -1.05834 l -0.52916,0.52916 z"
     inkscape:connector-curvature="0"
     style="fill:#9575cd;stroke-width:0.26458332" /><path
     id="path821-2"
     d="m 130.02781,141.25775 v 0 c -0.15875,0 -0.26459,-0.10584 -0.26459,-0.26459 v -2.11666 c 0,-0.15875 0.10584,-0.26459 0.26459,-0.26459 v 0 c 0.15875,0 0.26458,0.10584 0.26458,0.26459 v 2.11666 c 0,0.15875 -0.10583,0.26459 -0.26458,0.26459 z m 2.38125,-0.26459 v -2.11666 c 0,-0.15875 -0.10584,-0.26459 -0.26459,-0.26459 v 0 c -0.15875,0 -0.26458,0.10584 -0.26458,0.26459 v 2.11666 c 0,0.15875 0.10583,0.26459 0.26458,0.26459 v 0 c 0.15875,0 0.26459,-0.10584 0.26459,-0.26459 z m -1.05834,0 v -2.11666 c 0,-0.15875 -0.10583,-0.26459 -0.26458,-0.26459 v 0 c -0.15875,0 -0.26458,0.10584 -0.26458,0.26459 v 2.11666 c 0,0.15875 0.10583,0.26459 0.26458,0.26459 v 0 c 0.15875,0 0.26458,-0.10584 0.26458,-0.26459 z"
     inkscape:connector-curvature="0"
     style="fill:#7454b3;stroke-width:0.26458332" /><path
     id="path823-9"
     d="m 133.20281,137.81816 h -4.23334 v -0.29104 c 0,-0.29104 0.23813,-0.50271 0.50271,-0.50271 h 3.22792 c 0.29104,0 0.50271,0.23813 0.50271,0.50271 z"
     inkscape:connector-curvature="0"
     style="fill:#b39ddb;stroke-width:0.26458332" /></g></svg>