<?xml version="1.0" encoding="UTF-8" standalone="no"?>
<!-- Created with Inkscape (http://www.inkscape.org/) -->

<svg
   xmlns:dc="http://purl.org/dc/elements/1.1/"
   xmlns:cc="http://creativecommons.org/ns#"
   xmlns:rdf="http://www.w3.org/1999/02/22-rdf-syntax-ns#"
   xmlns:svg="http://www.w3.org/2000/svg"
   xmlns="http://www.w3.org/2000/svg"
   xmlns:sodipodi="http://sodipodi.sourceforge.net/DTD/sodipodi-0.dtd"
   xmlns:inkscape="http://www.inkscape.org/namespaces/inkscape"
   width="10.58333mm"
   height="10.58333mm"
   viewBox="0 0 10.58333 10.58333"
   version="1.1"
   id="svg3841"
   inkscape:version="0.92.5 (2060ec1f9f, 2020-04-08)"
   sodipodi:docname="trashTable.svg">
  <defs
     id="defs3835" />
  <sodipodi:namedview
     id="base"
     pagecolor="#ffffff"
     bordercolor="#666666"
     borderopacity="1.0"
     inkscape:pageopacity="0.0"
     inkscape:pageshadow="2"
     inkscape:zoom="5.6"
     inkscape:cx="8.6110722"
     inkscape:cy="-8.4087097"
     inkscape:document-units="mm"
     inkscape:current-layer="layer1"
     showgrid="false"
     inkscape:window-width="2388"
     inkscape:window-height="1522"
     inkscape:window-x="2553"
     inkscape:window-y="0"
     inkscape:window-maximized="0" />
  <metadata
     id="metadata3838">
    <rdf:RDF>
      <cc:Work
         rdf:about="">
        <dc:format>image/svg+xml</dc:format>
        <dc:type
           rdf:resource="http://purl.org/dc/dcmitype/StillImage" />
        <dc:title></dc:title>
      </cc:Work>
    </rdf:RDF>
  </metadata>
  <g
     inkscape:label="Layer 1"
     inkscape:groupmode="layer"
     id="layer1"
     transform="translate(-92.982143,-166.84391)">
    <g
       id="g4412"
       transform="matrix(0.26458333,0,0,0.26458333,91.923808,165.65328)">
      <path
         id="path4386"
         d="m 38,13 c 0,0.6 -0.4,1 -1,1 H 5 C 4.4,14 4,13.6 4,13 V 6 C 4,5.4 4.4,5 5,5 h 32 c 0.6,0 1,0.4 1,1 z"
         inkscape:connector-curvature="0"
         style="fill:#3f51b5" />
      <rect
         id="rect4388"
         height="29"
         width="34"
         y="10"
         x="4"
         style="fill:#bbdefb" />
      <path
         id="path4390"
         d="m 29,26 v 15 c 0,1.6 1.3,3 3,3 h 8 c 1.7,0 3,-1.4 3,-3 V 26 l -3,-1 -2,-2 h -4 l -2,2 z"
         inkscape:connector-curvature="0"
         style="fill:#9575cd" />
      <path
         id="path4392"
         d="m 32,41 v 0 c -0.6,0 -1,-0.4 -1,-1 v -8 c 0,-0.6 0.4,-1 1,-1 v 0 c 0.6,0 1,0.4 1,1 v 8 c 0,0.6 -0.4,1 -1,1 z m 9,-1 v -8 c 0,-0.6 -0.4,-1 -1,-1 v 0 c -0.6,0 -1,0.4 -1,1 v 8 c 0,0.6 0.4,1 1,1 v 0 c 0.6,0 1,-0.4 1,-1 z m -4,0 v -8 c 0,-0.6 -0.4,-1 -1,-1 v 0 c -0.6,0 -1,0.4 -1,1 v 8 c 0,0.6 0.4,1 1,1 v 0 c 0.6,0 1,-0.4 1,-1 z"
         inkscape:connector-curvature="0"
         style="fill:#7454b3" />
      <path
         id="path4394"
         d="M 44,28 H 28 V 26.9 C 28,25.8 28.9,25 29.9,25 h 12.2 c 1.1,0 1.9,0.9 1.9,1.9 V 28 Z"
         inkscape:connector-curvature="0"
         style="fill:#b39ddb" />
      <path
         id="path4396"
         d="M 31,21 H 15 v -2 h 16 z m 0,-6 H 15 v 2 H 31 Z M 27,31 H 15 v 2 H 27 Z M 11,17 h 2 v -2 h -2 z m 0,4 h 2 v -2 h -2 z m 0,12 h 2 v -2 h -2 z m 0,-8 h 2 v -2 h -2 z m 0,4 h 2 V 27 H 11 Z M 29.9,23 H 15 v 2 h 11.5 c 0.7,-1.2 2,-2 3.4,-2 z M 26,28 V 27 H 15 v 2 h 11 z"
         inkscape:connector-curvature="0"
         style="fill:#1976d2" />
    </g>
  </g>
</svg>
