<?xml version="1.0" encoding="utf-8"?>
<!-- Generator: Adobe Illustrator 15.0.0, SVG Export Plug-In . SVG Version: 6.00 Build 0)  -->
<!DOCTYPE svg PUBLIC "-//W3C//DTD SVG 1.1//EN" "http://www.w3.org/Graphics/SVG/1.1/DTD/svg11.dtd">
<svg version="1.1"  xmlns="http://www.w3.org/2000/svg" xmlns:xlink="http://www.w3.org/1999/xlink" x="0px" y="0px"
	 width="48px" height="48px" viewBox="0 0 48 48" enable-background="new 0 0 48 48" xml:space="preserve">
<circle fill="#00ACC1" cx="24" cy="24" r="19"/>
<circle fill="#EEEEEE" cx="24" cy="24" r="15"/>
<g>
	<path fill="#78909C" d="M23,38.949C23.332,38.972,23.662,39,24,39s0.668-0.028,1-0.051V36h-2V38.949z"/>
	<path fill="#78909C" d="M36,25h2.949C38.972,24.668,39,24.338,39,24s-0.028-0.668-0.051-1H36V25z"/>
	<path fill="#78909C" d="M9.051,25H12v-2H9.051C9.028,23.332,9,23.662,9,24S9.028,24.668,9.051,25z"/>
</g>
<g>
	<rect x="26.176" y="22.93" transform="matrix(-0.7071 0.7071 -0.7071 -0.7071 66.3866 27.9754)" width="2.446" height="9.614"/>
	<path d="M27,24c0,1.658-1.342,3-3,3s-3-1.342-3-3s1.342-3,3-3S27,22.342,27,24"/>
	<rect x="23" y="11" width="2" height="10.337"/>
</g>
<path fill="#00ACC1" d="M25,24c0,0.552-0.448,1-1,1s-1-0.448-1-1s0.448-1,1-1S25,23.448,25,24"/>
</svg>
